# xmcd CD database file
#
# Track frame offsets:
#	180
#	18837
#	42425
#	58426
#	83310
#	96692
#	111974
#	127741
#	149695
#	171056
#	184384
#	201209
#	217440
#	234233
#	253290
#	277116
#	301838
#
# Disc length: 4268 seconds
#
# Revision: 1
# Processed by: cddbd v1.5PL3 Copyright (c) Steve Scherf et al.
# Submitted via: CDex 1.50
#
DISCID=0610aa11
DTITLE=David Paquette - Flying Solo
DYEAR=1900
DGENRE=Jazz
TTITLE0=The glory of love
TTITLE1=A nightingale sang in Berkley Square
TTITLE2=He´s got a way with women
TTITLE3=The nearness of you
TTITLE4=I´ll be seeing you
TTITLE5=I cried for you
TTITLE6=Trouble in mind
TTITLE7=Someday you´ll want me to want you
TTITLE8=Smell the city
TTITLE9=Mama Inez
TTITLE10=Memories of you
TTITLE11=The Honeydripper
TTITLE12=When I grow too old to dream
TTITLE13=Somebody else is taking my place
TTITLE14=Something
TTITLE15=Melancholy
TTITLE16=My walking stick
EXTD=
EXTT0=
EXTT1=
EXTT2=
EXTT3=
EXTT4=
EXTT5=
EXTT6=
EXTT7=
EXTT8=
EXTT9=
EXTT10=
EXTT11=
EXTT12=
EXTT13=
EXTT14=
EXTT15=
EXTT16=
PLAYORDER=
